# xmcd
#
# Track frame offsets:
#	150
#	19865
#	33263
#	45418
#	57178
#	67160
#	79055
#	91425
#	104095
#	116155
#	129075
#	139760
#
# Disc length: 2065 seconds
# Revision: 2
# Processed by: cddbd v1.5.2PL0 Copyright (c) Steve Scherf et al.
# Submitted via: dBpowerAMP V12.0
#
DISCID=a2080f0c
DTITLE=Ray Price - San Antonio Rose
DYEAR=1962
DGENRE=Country
TTITLE0=San Antonio Rose
TTITLE1=A Maiden's Prayer
TTITLE2=My Confession
TTITLE3=Whose Heart Are You Breaking Now?
TTITLE4=Roly Poly
TTITLE5=Bubbles in My Beer
TTITLE6=Home in San Antone
TTITLE7=You Don't Love Me (But I'll Always Care)
TTITLE8=You Don't Care What Happens to Me
TTITLE9=Time Changes Everything
TTITLE10=The Kind of Love I Can't Forget
TTITLE11=Hang Your Head in Shame
EXTD=
EXTT0=
EXTT1=
EXTT2=
EXTT3=
EXTT4=
EXTT5=
EXTT6=
EXTT7=
EXTT8=
EXTT9=
EXTT10=
EXTT11=
PLAYORDER=
